PathFileType	4	(X/Y/Z)	pose2sim_0-881.trc
DataRate	CameraRate	NumFrames	NumMarkers	Units	OrigDataRate	OrigDataStartFrame	OrigNumFrames
50	50	6	22	m	50	771	882
Frame#	Time	Hip			RHip			RKnee			RAnkle			RBigToe			RSmallToe			RHeel			LHip			LKnee			LAnkle			LBigToe			LSmallToe			LHeel			Neck			Head			Nose			RShoulder			RElbow			RWrist			LShoulder			LElbow			LWrist			
		X1	Y1	Z1	X2	Y2	Z2	X3	Y3	Z3	X4	Y4	Z4	X5	Y5	Z5	X6	Y6	Z6	X7	Y7	Z7	X8	Y8	Z8	X9	Y9	Z9	X10	Y10	Z10	X11	Y11	Z11	X12	Y12	Z12	X13	Y13	Z13	X14	Y14	Z14	X15	Y15	Z15	X16	Y16	Z16	X17	Y17	Z17	X18	Y18	Z18	X19	Y19	Z19	X20	Y20	Z20	X21	Y21	Z21	X22	Y22	Z22	
771	15.42	0.13663315193280012	0.9927581227519816	-0.00923643688691684	0.032296977826234294	0.9807340196891958	0.00514219271767507	0.012038122071659477	0.5267745017954735	-0.058324590807474035	0.0022661959954046206	0.09239118985782217	-0.07480542824328375	0.00479676843385922	0.04923105512249053	0.0972386523153513	-0.048694017719713344	0.052030611964561234	0.049920291990123204	0.007018578024791298	0.033499472590732264	-0.1423137254674815	0.24149355859078603	0.9748984474307317	-0.019736352386612182	0.24082447776598728	0.5226524481939916	-0.0930155308035668	0.24353993913198457	0.08886210684609834	-0.11197790039312724	0.26175148292145384	0.04832464973516513	0.08107222932885176	0.3128455473112825	0.044899495954882046	0.020133516487819424	0.23538394826608736	0.030086884209042625	-0.15699929390080308	0.15551071912668693	1.5728505129931711	-0.04974551875054558	0.1558274590428187	1.8274290322060271	-0.010532218926840994	0.14977048580945393	1.6987896189199136	0.058158181279878936	-0.00747886070104081	1.4724248003735176	-0.03321506590416563	-0.07304217804853592	1.2064137060644937	0.009552815049608372	-0.18339430657672623	1.012473062458536	0.11122529653627128	0.32095466554386326	1.4673933329737783	-0.067124529914195	0.37894444731255517	1.2026996597192148	-0.024727654088584374	0.4581290968181418	0.9623433603841606	0.014408803936430424
772	15.44	0.13709379371748204	0.9948125365148275	-0.00019494354101496947	0.03973953243614655	0.9802167946496991	0.012569003719166527	0.011247251198876883	0.5249083328117414	-0.05236681937384611	-0.0015344322931697284	0.09442694557258598	-0.08524711927554084	-0.0004105088307542573	0.050587631537812684	0.11683605376441011	-0.05137245715545112	0.047388507756883684	0.06697037069165682	0.0002411100815480186	0.0413443183492558	-0.1354463560978572	0.23986102533160952	0.9753009622096395	-0.009821573997154567	0.23921542449112826	0.5142210589161129	-0.09657050716486217	0.2381976987300091	0.08910553333920929	-0.10780645214981628	0.2642214473605883	0.04792607578058359	0.08820862752630518	0.30817206278169873	0.04820241280499267	0.037031214215539406	0.2261350083218114	0.034357464345111055	-0.1580059771070842	0.15997211249183166	1.5709692354690334	-0.049331433070352405	0.1561380128232905	1.8275824253888386	-0.004048008822483954	0.14758863491821914	1.699056706453107	0.08520579299142263	-0.003535176033149393	1.4715159041597166	-0.02811186297900551	-0.07360452992708869	1.205780192874216	0.008677002218914926	-0.18841230495225186	1.0019894300236967	0.11876478569420046	0.318411736730744	1.4619994773864073	-0.0645181263666178	0.3746673045227219	1.195048195783987	-0.024576171141461847	0.44630064447226936	0.9589308992488932	0.007285890387743289
773	15.46	0.13830570324848365	0.9917665108537523	-0.0053988800650977475	0.033655660551678714	0.9798245271208785	0.009539251088141947	0.009978025984595247	0.5257572279356658	-0.06048529211599137	0.0030788414385466154	0.09340629205398021	-0.08467909822668969	0.005998601818843614	0.0511255620958691	0.10223743130535398	-0.04759012537472519	0.05411203960883265	0.05498515985586139	0.004910597005694288	0.039556898063386366	-0.14483837224018153	0.24333981045717293	0.9766396329543662	-0.016308620608325174	0.23938314397743862	0.5185078509255437	-0.09686910163220895	0.23989867220396316	0.08776970854140538	-0.10868074479856485	0.25731979236726427	0.039976251176256146	0.07130406030747148	0.31188448849135997	0.038422228033637984	0.01647192096382995	0.23418280465583988	0.029763196600922456	-0.1611856204888996	0.16017932716136707	1.5737494378111638	-0.03967670197894057	0.1544584396148469	1.8287172719948377	-0.00022499411891894685	0.14517004693780705	1.7004493601418929	0.062299184458651555	-0.006582490890638403	1.4729006436285348	-0.028719690441675615	-0.07350271057006537	1.2052543736623411	0.0011265771416664578	-0.18209762031697624	0.998155405595616	0.09636413703330694	0.3260348558350736	1.470685808190022	-0.057344810591420395	0.37491911399276584	1.2014155304631067	-0.035710465205784796	0.44862114187696844	0.957912691050168	-0.0107950242469704
774	15.48	0.1384437741152022	0.9898657574702122	0.0012720717537132253	0.03654956321596884	0.9798853141723016	0.00921153219484515	0.012551369152162066	0.5224711186408529	-0.061029506527535055	-0.0001240401569875176	0.0926777292060688	-0.0844371762765775	-0.0025809286559993253	0.05182520614202353	0.11677650929415881	-0.053262758135902546	0.049627245690164565	0.06260018703796405	0.0026071190172016765	0.038749845116584115	-0.1448499122588018	0.24024160027552738	0.9737793332509206	-0.016312064130670823	0.23958682323792013	0.5137984765920895	-0.10432524957323225	0.2435846016403622	0.09028906327165892	-0.10894323857610838	0.2567772385683219	0.039878951164688	0.06466203404620527	0.3117165128036173	0.04257719122848409	0.02347610111561668	0.2379019842503556	0.03221980850457384	-0.16152750024811896	0.16314216296437423	1.5690220585215844	-0.03999391622416424	0.1599770234972741	1.8247476846409165	-0.007174637059238554	0.15328635922839046	1.698596455288706	0.049069540835706374	-0.003750019634889665	1.4760270080573554	-0.028945108183343362	-0.07081056436206666	1.208140041312674	0.0008792043138417324	-0.18071653620387468	0.9940039428953004	0.08258425997970777	0.3232452744430826	1.4657922655421316	-0.057633428842323586	0.37508903504155444	1.2012501702294025	-0.04254687613683918	0.44897662430442914	0.9515422114825617	-0.017728901821573252
775	15.5	0.13961880490702175	0.9917516682586334	-0.008840276826059396	0.03497654736542723	0.9794190895901086	0.005345787996690402	0.01068162725864316	0.5167592065980202	-0.06516031110885333	0.0022238835194834422	0.08919708024867458	-0.08187599087463293	0.002908377107189699	0.04945265774901555	0.1115968123700735	-0.04822319400981867	0.04980887544786055	0.05714423029420095	0.003964540504558461	0.035412705416578136	-0.14188717933652015	0.24117650544805302	0.9727166368400265	-0.025701314940190286	0.24107013115535306	0.5127671380246418	-0.09983773158250969	0.2406975192344343	0.08800587307762622	-0.11133312685718721	0.2643632307430153	0.039103384434348125	0.05509786805495799	0.3161075617457634	0.03986531086256504	0.007422693887779734	0.2320192672485389	0.03193878279279225	-0.15626520023136123	0.16466816432876089	1.5731127647981868	-0.03631155933510582	0.16413768533612594	1.8309770344341867	-0.01021380590431416	0.1542599372212373	1.7030664786622673	0.03944521080377888	-0.0018943724429415615	1.4723232756012936	-0.026818835319152953	-0.07222517893430941	1.204629592516772	-0.003868860588361466	-0.1782105731775486	0.9883226761703385	0.08285913014259154	0.32718584781638355	1.4701879245855576	-0.059311077365201414	0.3731473998639398	1.1979183324198162	-0.044372066193923164	0.4465637849052488	0.9541818310399908	-0.01894765529006897
776	15.52	0.13638089399175574	0.9911433198964439	0.0013165728584752857	0.034221630856474776	0.9812480019413912	0.014616932744847856	0.012137391808520767	0.5205007140598222	-0.05683701892475205	-0.0002072666301890061	0.08999320238702116	-0.08980432996805879	0.0008530352302781196	0.046329579567270796	0.11233394405000491	-0.04966749323949818	0.04555125574771348	0.0623822441459202	-0.0018272405494186585	0.038335443196218635	-0.14599214358563423	0.2361590254838322	0.9731052636896452	-0.013750315327326824	0.2379278512294238	0.5130949536553534	-0.09464564836836935	0.23982652386112077	0.0872310292608615	-0.11209983672081694	0.2561787998929805	0.04871587657175539	0.08410357646770004	0.30428149372809227	0.04863635942657978	0.03294322765672376	0.23018627735253447	0.030547712410143993	-0.1685714264457133	0.16487718890499797	1.5686885425519541	-0.036748166186861594	0.16360350175825067	1.8263343527214768	0.013437439682719996	0.14707378866865894	1.6967918945786287	0.08655216167320166	-0.003869829004198327	1.4715802066530095	-0.0264765842270787	-0.07410528315625559	1.1994165523412876	0.01017174704632119	-0.18244829361124532	0.9762192028689316	0.08533537866989685	0.322855781698153	1.4624055636198676	-0.05149108842231494	0.36864113860572506	1.1943137490418314	-0.04583769599599235	0.4403498420122105	0.9549017778418949	-0.014051833480032267
